<svg width="146" height="89" viewBox="0 0 146 89" fill="none" xmlns="http://www.w3.org/2000/svg">
<path d="M103.32 8.4379V11.65H123.559C124.905 11.65 126.934 11.65 128.285 13.4835C129.636 15.324 129.636 18.0813 129.636 19.9218V47.4944C129.636 49.3349 129.636 52.0921 128.285 53.9256C126.934 55.7661 124.905 55.7661 123.559 55.7661H113.799C112.114 55.7661 109.915 55.7661 109.073 53.2398C108.236 50.7065 109.409 48.4111 110.429 46.5776L123.58 22.714H103.34L95.2237 37.4101C93.8675 39.8734 92.6963 42.0078 92.6963 44.7581C92.6963 47.5154 93.7853 49.5028 95.2237 52.1061L97.2476 55.7801C99.2716 59.4541 101.296 63.1281 103.977 64.9476C106.679 66.7741 109.885 66.7741 114.251 66.7741H123.035C128.1 66.7741 135.672 66.7742 140.758 59.888C145.812 52.9949 145.812 42.8826 145.812 39.2436V28.1866C145.812 24.5056 145.812 14.4003 140.758 7.54215C135.693 0.642009 128.121 0.663003 123.035 0.656005L109.063 0.645508C107.722 0.645508 106.027 0.645508 104.676 2.48601C103.335 4.32651 103.335 6.62189 103.335 8.4624" fill="#DA4216"/>
<path d="M79.1758 22.644H99.2099L75.0662 66.7321H54.5184L79.1758 22.644Z" fill="#DA4216"/>
<path d="M0.0667804 30.482C0.0667804 28.6485 0.0667805 26.3461 1.4178 24.5056C2.76368 22.6721 4.45888 22.6721 5.80476 22.6721H39.7086C44.0905 22.6721 47.3113 22.6721 49.9826 24.5056C52.6743 26.3531 54.6983 30.0271 56.712 33.6731L58.7411 37.3472C60.1845 39.9574 61.2787 41.9449 61.2787 44.6952C61.2787 47.4524 60.0972 49.5868 58.7411 52.0432L50.6247 66.7392H30.3851L43.5357 42.8757C44.5477 41.0352 45.7343 38.7468 44.8867 36.2135C44.0494 33.6941 41.8559 33.6941 40.171 33.6941H24.2978V88.8392H8.11639V33.6941H0V30.475" fill="#DA4216"/>
</svg>
