<svg id="Слой_1" data-name="Слой 1" xmlns="http://www.w3.org/2000/svg" viewBox="0 0 425.2 354.33"><defs><style>.cls-1{fill:#e0e0e0;}.cls-2{fill:#fff;}.cls-3{fill:#27a4de;}.cls-4{fill:none;stroke:#27a4de;stroke-miterlimit:10;stroke-width:2px;}</style></defs><title>03</title><path class="cls-1" d="M233.28,55.25l148-1v36l-43,46s46,8,50,42-6,47-6,47-13,27-49,35c-26.54,5.9-70.81-2.55-80-6-8-3-10-3-16-7-4.3-2.87-11.67-7.73-14-11l20-36s42.08,21,71.89,12.9a24.64,24.64,0,0,0,18.15-19.55c1.08-6.65-.84-12.52-9-16.35-15-7-47-4-47-4v-36l36-39h-80Z"/><ellipse class="cls-1" cx="127.28" cy="159.25" rx="93.5" ry="103.5"/><ellipse class="cls-2" cx="126.78" cy="158.25" rx="38.5" ry="57"/><circle class="cls-3" cx="190.28" cy="260.25" r="6"/><line class="cls-4" x1="140.78" y1="186.75" x2="162.78" y2="212.75"/><line class="cls-4" x1="132.78" y1="192.75" x2="162.78" y2="229.75"/><circle class="cls-4" cx="132.28" cy="184.25" r="9"/><rect class="cls-3" x="204.78" y="141.75" width="13" height="27"/><line class="cls-4" x1="135.78" y1="175.75" x2="205.78" y2="142.75"/><line class="cls-4" x1="141.78" y1="183.75" x2="205.78" y2="153.75"/><path class="cls-3" d="M160.78,219.63v9.93l19.56,24.13a12.28,12.28,0,0,1,4.71-4.13Z"/><path class="cls-3" d="M179.1,173.67l-18.32,9.08v30.52l28.42,35.06a11.59,11.59,0,0,1,1.33-.08c.26,0,.52,0,.79,0v0l5-2.94V215.64h11.95l.09,34.89H265v10.72H202.74a12.24,12.24,0,0,1-24.46-.75,11.43,11.43,0,0,1,.07-1.32L160.78,237.5v41.25H287.1V173.67Zm94.68,17.08v55h-59v-60h42v5h-15v11h-5v-11h-17v24h17v-8h5v8h7v5h-7v7h-5v-7h-17v21h17v-7h5v7h27v-21h-15v-5h15v-24h-7v-5h12Z"/></svg>