<svg width="153" height="129" viewBox="0 0 53 29" version="1.1" xmlns="http://www.w3.org/2000/svg" xmlns:xlink="http://www.w3.org/1999/xlink">

<title>&#208;&#187;&#208;&#190;&#208;&#187;&#208;&#179;&#208;&#190;&#208;&#179;&#208;&#190;&#208;&#187;</title>
<desc>Created using Figma</desc>
<g id="Canvas" transform="translate(-8377 2780)">
<g id="&#208;&#187;&#208;&#190;&#208;&#187;&#208;&#179;&#208;&#190;&#208;&#179;&#208;&#190;&#208;&#187;">
<g id="Group">
<g id="Vector">
<use xlink:href="#path0_fill" transform="translate(8377 -2780)" fill="#FEFEFE"/>
</g>
<g id="Vector">
<use xlink:href="#path1_fill" transform="translate(8385.11 -2779)" fill="#014701"/>
</g>
<g id="Vector">
<use xlink:href="#path2_fill" transform="translate(8378 -2765.05)" fill="#FC0002"/>
</g>
<g id="Vector">
<use xlink:href="#path3_fill" transform="translate(8387.42 -2760.48)" fill="#FC0002"/>
</g>
<g id="Vector">
<use xlink:href="#path4_fill" transform="translate(8387.49 -2764.97)" fill="#014701"/>
</g>
</g>
<clipPath id="clip-0" clip-rule="evenodd">
<path d="M 8377.8 -2779L 8429.8 -2779L 8429.8 -2751L 8377.8 -2751L 8377.8 -2779Z" fill="#FFFFFF"/>
</clipPath>
<g id="&#208;&#161;&#208;&#187;&#208;&#190;&#208;&#185; x0020 1" clip-path="url(#clip-0)">
</g>
</g>
</g>
<defs>
<path id="path0_fill" fill-rule="evenodd" d="M 1.70492 13.791L 6.81967 13.791L 7.2459 12.9552C 9.59016 5.01493 17.4754 0 26 0C 34.3115 0 42.623 5.01493 44.9672 13.1642L 45.1803 13.791L 50.2951 13.791C 51.1475 13.791 52 14.6269 52 15.6716L 52 26.1194C 52 27.1642 51.1475 28 50.2951 28L 1.70492 28C 0.852459 28 0 27.1642 0 26.1194L 0 15.6716C 0 14.6269 0.852459 13.791 1.70492 13.791Z"/>
<path id="path1_fill" fill-rule="evenodd" d="M 18.797 0L 16.0809 0C 15.8654 0.128357 14.9169 0.171143 14.5289 0.213929C 11.4679 0.684573 8.14824 2.05372 5.82017 3.9363C 4.5268 4.96316 3.27654 6.16116 2.32807 7.53031C 1.46582 8.81388 0.344899 10.6965 0 12.2795L 1.20715 12.6218C 1.59516 11.1243 2.62985 9.19895 3.53521 8.00095C 4.22501 7.05966 4.48369 6.84573 5.17348 6.16116C 5.34593 5.99002 5.43216 5.86166 5.60461 5.7333C 5.77706 5.60494 5.90639 5.4338 6.07884 5.30544C 11.5541 0.641787 19.7886 -0.0427858 26.1261 3.33729C 27.247 3.9363 28.3248 4.62087 29.2733 5.39101C 30.8685 6.71738 32.2912 8.34324 33.1965 10.183C 33.5414 10.9104 34.0157 11.8945 34.1881 12.7074L 35.3953 12.3651C 35.1797 11.0387 33.8001 8.64274 32.981 7.53031C 30.1787 3.59401 25.3501 0.941288 20.4353 0.213929C 20.1335 0.171143 18.9694 0.0855717 18.797 0ZM 15.9516 13.6915C 16.5983 13.7343 16.5552 13.6487 17.1156 13.8198C 17.2018 13.8626 17.8485 13.6915 18.1072 13.6487C 18.1503 12.4507 17.1156 9.11338 18.2365 8.72831C 18.4952 8.98502 18.3659 10.0547 19.3575 10.9104C 19.9179 11.381 21.0388 11.595 21.9442 11.4238C 22.7202 11.2527 23.5825 10.6965 24.1429 10.3542C 24.6172 10.0547 25.1776 9.71238 25.7812 9.58403C 25.9968 9.54124 26.2554 9.54124 26.4279 9.45567C 26.2985 8.64274 25.3501 7.70145 24.919 7.31638C 24.4016 6.88852 23.2807 6.28952 22.4184 6.11837C 20.6077 5.69052 19.573 6.46066 18.409 7.35916C 18.2365 7.53031 18.0641 7.65866 17.8916 7.78702C 17.7192 7.91538 17.5467 8.12931 17.2449 8.08652C 17.1156 7.70145 17.0725 6.88852 17.0725 6.46066C 17.0294 5.51937 16.9863 5.47659 17.4174 5.04873C 17.7623 4.74923 18.021 4.57808 18.021 3.89351C 18.021 3.33729 17.9347 2.78108 17.8916 2.22486C 17.5898 2.31043 16.7707 2.78108 16.5552 2.95222C 16.124 3.25172 15.7791 3.59401 15.8654 4.36415C 15.9085 4.92037 16.4689 5.94723 15.5205 5.4338C 14.8738 5.1343 15.3911 4.8348 14.572 4.27858C 13.6666 3.6368 12.1577 4.15023 11.3817 4.57808C 11.123 4.74923 9.78651 5.7333 9.61406 5.94723C 9.3985 6.24673 9.82962 6.37509 10.0021 6.50345C 10.735 7.01688 11.8559 7.87259 12.7181 7.91538C 13.3648 7.91538 13.8822 7.61588 14.2271 7.31638C 14.6582 6.84573 14.8307 6.24673 15.3911 6.54623C 16.2965 7.05966 16.2534 8.55717 16.2103 9.79796C 16.2103 10.4825 16.2103 11.1671 16.124 11.8089C 16.0809 12.3651 15.9516 13.178 15.9516 13.6915Z"/>
<path id="path2_fill" fill-rule="evenodd" d="M 0 11.7661L 2.58674 11.7661L 2.58674 4.92037L 3.06098 5.77609C 3.23343 6.07559 3.36277 6.3323 3.53521 6.6318C 3.79389 7.14523 4.22501 7.87259 4.44057 8.38602L 4.56991 8.17209C 4.91481 7.53031 6.12196 5.04873 6.29441 4.87758L 6.33752 11.7661L 45.3973 11.7661C 45.7853 10.7392 46.5183 9.0706 46.9494 7.91538L 47.1649 7.44473C 47.208 7.40195 47.1649 7.40195 47.208 7.35916L 47.208 11.7661L 49.4068 11.7661L 49.4068 2.56715L 47.2512 2.56715C 46.8632 3.38008 45.5698 6.88852 45.3542 7.14523L 45.3542 2.56715L 43.1555 2.56715L 43.1555 10.782L 8.83804 10.782L 8.83804 0L 6.29441 0L 4.44057 3.6368C 4.13879 3.08058 3.79389 2.39601 3.4921 1.83979L 2.58674 0L 0 0.0427858L 0 11.7661ZM 47.941 0.213929L 46.6476 0.213929C 46.6045 0.427858 46.5183 0.641787 46.3027 0.641787C 46.0871 0.641787 46.044 0.427858 45.9578 0.213929L 44.7075 0.213929C 44.7075 1.198 45.3542 2.18208 46.3027 2.18208C 47.2512 2.18208 47.8979 1.198 47.941 0.213929Z"/>
<path id="path3_fill" fill-rule="evenodd" d="M 2.09227 1.45587C 3.38564 1.11359 3.6012 3.68074 2.48028 3.98024C 1.18691 4.32253 0.928236 1.79816 2.09227 1.45587ZM 24.9418 0.98523C 24.64 0.215085 23.3898 -0.212773 22.4413 0.343443C 20.7168 1.28473 20.7168 4.19417 22.3551 5.17824C 23.2173 5.69167 24.5538 5.43496 24.9418 4.75038L 24.252 3.59517L 24.0796 3.72352C 23.7778 4.1086 23.3467 4.15138 23.0018 3.93745C 22.6569 3.72352 22.4844 3.25288 22.4844 2.73945C 22.5275 2.18323 22.7 1.75538 23.088 1.58423C 23.7347 1.24195 23.9502 1.84095 24.2089 1.9693L 24.9418 0.98523ZM 8.60224 0.942444C 8.4729 0.600158 7.95555 0.215085 7.56754 0.0867278C 6.14483 -0.298345 4.80835 0.899659 4.76524 2.65388C 4.76524 3.8091 5.23947 4.66481 5.92927 5.13546C 6.92086 5.73446 8.21423 5.34939 8.60224 4.7076C 8.51601 4.53645 7.95555 3.68074 7.82622 3.55238C 7.65377 3.68074 7.65377 3.8091 7.39509 3.93745C 6.74841 4.19417 6.10172 3.68074 6.14483 2.73945C 6.14483 1.62702 6.87774 1.24195 7.39509 1.54145C 7.48132 1.58423 7.56754 1.6698 7.61065 1.71259C 7.7831 1.88373 7.69688 1.84095 7.86933 1.92652L 8.60224 0.942444ZM 12.6548 5.3066C 12.5686 5.04988 12.1806 4.27974 12.0512 3.98024C 11.189 2.31159 11.2321 2.91059 11.9219 1.45587C 12.0943 1.15637 12.4824 0.429014 12.5686 0.172299L 11.1028 0.172299L 10.3267 2.01209L 10.3267 0.172299L 9.03336 0.172299L 9.03336 5.3066L 10.3267 5.3066C 10.3267 4.79317 10.2405 3.63795 10.3267 3.25288L 11.1028 5.26381C 11.3614 5.34939 12.3099 5.3066 12.6548 5.3066ZM 29.0375 5.34939C 28.9513 5.13546 28.5633 4.36531 28.3908 4.06581C 27.701 2.56831 27.6148 2.86781 28.0028 2.14045C 28.1753 1.75538 28.8651 0.4718 28.9082 0.215085L 27.4423 0.215085C 27.313 0.600158 26.8819 1.84095 26.7094 2.05488L 26.7094 0.215085L 25.4161 0.215085L 25.4161 5.34939L 26.6663 5.34939L 26.7094 3.38124C 26.7957 3.50959 26.8388 3.72352 26.925 3.89467L 27.4855 5.34939L 29.0375 5.34939ZM 18.8199 4.1086L 18.8199 3.29567C 19.2079 3.25288 19.5097 3.29567 19.5097 3.68074C 19.5097 4.1086 19.2079 4.15138 18.8199 4.1086ZM 18.8199 1.41309C 19.1648 1.41309 19.4234 1.45587 19.4234 1.84095C 19.4234 2.22602 19.2079 2.26881 18.8199 2.22602L 18.8199 1.41309ZM 20.2426 2.65388C 20.415 2.43995 20.4581 2.48273 20.5875 2.22602C 20.6737 2.01209 20.7168 1.79816 20.7168 1.58423C 20.7168 0.00115605 18.9923 0.0867278 17.5265 0.172299L 17.5265 5.34939C 19.0354 5.39217 21.0617 5.6061 20.8462 3.63795C 20.7599 2.95338 20.415 2.82502 20.2426 2.65388ZM 15.6296 3.08174C 15.3709 4.57924 13.5602 4.23695 13.8619 2.39716C 13.9482 1.84095 14.3793 1.24195 15.0691 1.54145C 15.5002 1.71259 15.7589 2.43995 15.6296 3.08174ZM 12.4824 3.08174C 12.6117 4.4081 13.5602 5.69167 15.1122 5.43496C 16.3194 5.22103 17.1385 3.89467 17.0092 2.39716C 16.8798 1.11359 15.8882 -0.169987 14.4224 0.0867278C 13.1722 0.300657 12.3099 1.58423 12.4824 3.08174ZM 30.6758 5.34939C 30.8482 5.17824 31.5811 3.12452 31.7967 2.86781L 31.7536 5.39217L 33.047 5.39217L 33.047 0.257871L 31.7967 0.257871L 30.6758 2.69666L 30.6758 0.257871L 29.4255 0.257871L 29.4255 5.34939L 30.6758 5.34939ZM 0.0228762 3.08174C 0.454 6.59017 4.93769 5.94839 4.54968 2.31159C 4.37723 1.02802 3.42875 -0.255559 1.91982 0.0439419C 0.669562 0.257871 -0.149573 1.54145 0.0228762 3.08174Z"/>
<path id="path4_fill" fill-rule="evenodd" d="M 19.6113 3.46669L 20.4736 3.46669L 20.4736 0.94233L 19.6113 0.94233L 19.6113 3.46669ZM 9.43682 1.84083C 9.30748 1.28462 9.35059 0.856758 9.91106 0.813972C 10.5577 0.771186 10.6871 1.07069 10.6009 1.71247C 10.4284 2.91048 9.69549 3.16719 9.43682 1.84083ZM 9.60927 0.0438273C 8.53146 0.214971 8.27279 0.94233 8.53146 2.09755C 9.13503 4.40798 11.5493 3.72341 11.5493 1.37019C 11.5493 0.172185 10.5577 -0.0845302 9.60927 0.0438273ZM 21.8963 2.69655C 21.6376 0.813972 22.6292 0.856758 23.8795 0.856758L 23.6639 0.129399C 21.8101 -0.127316 20.8616 0.899544 20.9909 2.65376L 20.6891 2.73933L 20.9047 3.46669L 23.8364 3.42391L 24.0088 2.69655L 23.707 2.69655L 23.707 0.94233L 22.8448 0.94233L 22.8448 2.69655L 21.8963 2.69655ZM 4.134 3.42391C 4.04777 2.69655 4.09089 1.66969 4.09089 0.856758L 5.42737 0.856758L 5.21181 0.0866131L 3.22864 0.0866131L 3.22864 0.471686C 3.22864 1.11347 3.0993 3.33834 3.35797 3.98012L 4.134 3.42391ZM 11.5924 0.129399C 11.7218 0.343328 12.4116 1.58412 12.3685 1.75526C 12.2822 2.01198 11.6356 3.08162 11.5062 3.46669L 12.4978 3.46669L 13.0151 2.43983L 13.4463 3.46669L 14.4379 3.46669C 14.3085 3.08162 13.6618 1.96919 13.6187 1.75526C 13.5325 1.54133 14.2654 0.4289 14.3516 0.0866131L 13.36 0.0866131L 12.972 0.985116L 12.584 0.0866131L 11.5924 0.129399ZM 5.59982 0.856758C 5.90161 0.856758 6.20339 0.856758 6.50518 0.856758C 6.80696 0.856758 7.19498 0.813972 7.32431 0.985116C 7.49676 1.37019 6.89319 1.71247 6.63452 1.84083L 6.63452 0.94233L 5.72916 0.94233L 5.72916 3.42391L 6.63452 3.46669L 6.63452 2.73933C 6.76385 2.61098 7.02253 2.52541 7.15186 2.43983C 7.36743 2.31148 7.49676 2.2259 7.66921 2.09755C 7.88477 1.9264 8.27279 1.49855 8.27279 0.985116C 8.27279 0.471686 7.92789 0.214971 7.45365 0.129399C 7.06564 0.0438273 6.20339 0.0866131 5.77227 0.0866131L 5.59982 0.856758ZM 31.7259 3.42391C 31.6397 2.78212 31.6828 1.58412 31.6828 0.856758L 33.0193 0.856758L 32.8037 0.0866131L 30.8206 0.0866131C 30.7774 0.94233 30.6912 3.33834 30.9499 3.93734C 31.0792 3.89455 31.5966 3.55227 31.7259 3.42391ZM 0.986794 1.6269C 1.24547 0.771186 1.89215 0.856758 2.88374 0.856758L 2.71129 0.0866131C 1.50414 0.0866131 0.598783 0.129399 0.167659 1.11347C -0.17724 1.96919 0.0383221 3.42391 0.555671 3.89455L 1.20236 3.42391C 1.07302 3.03884 0.90057 2.95326 0.90057 2.39705L 1.89215 2.39705L 1.89215 3.46669L 2.7544 3.46669L 2.7544 0.94233L 1.89215 0.985116L 1.84904 1.6269L 0.986794 1.6269ZM 28.4925 1.9264L 29.441 1.9264L 29.441 3.46669L 30.3032 3.42391L 30.3032 0.0866131L 29.441 0.0866131L 29.441 1.15626L 28.4925 1.15626L 28.4925 0.0866131L 27.6302 0.0866131L 27.6302 2.91048C 27.6302 3.33834 27.5871 3.55227 27.7596 3.98012L 28.5356 3.42391L 28.4925 2.31148L 28.4925 1.9264ZM 16.5504 1.79805C 16.2917 3.16719 15.5157 2.91048 15.3863 1.71247C 15.3001 1.11347 15.3863 0.771186 15.9899 0.813972C 16.5935 0.813972 16.6366 1.24183 16.5504 1.79805ZM 15.5157 0.0438273C 15.0414 0.129399 14.6965 0.343328 14.5241 0.728401C 14.093 1.71247 14.869 3.98012 16.3779 3.46669C 17.5851 3.03884 18.4473 -0.426817 15.5157 0.0438273ZM 18.9647 3.42391C 18.8784 3.12441 18.706 2.99605 18.6198 2.52541C 18.4042 0.899544 19.482 0.856758 20.646 0.856758L 20.4305 0.129399C 19.2233 -0.0417444 18.3611 0.343328 17.9731 1.15626C 17.7575 1.58412 17.6713 2.14033 17.7575 2.65376C 17.8437 3.25276 18.0162 3.46669 18.2317 3.89455C 18.3611 3.85177 18.8353 3.55227 18.9647 3.42391ZM 25.1728 3.46669C 25.1728 2.26869 25.0435 2.61098 25.7764 1.75526C 25.9057 1.6269 25.9489 1.49855 26.1213 1.37019L 26.1213 3.46669L 27.0267 3.46669L 27.0267 0.0866131L 26.1644 0.0866131C 26.0351 0.257756 25.8195 0.514471 25.6471 0.685615C 25.5177 0.813972 25.3453 1.11347 25.1728 1.19904L 25.1728 0.0866131L 24.3106 0.129399L 24.3106 3.46669L 25.1728 3.46669Z"/>
</defs>
</svg>
