<?xml version="1.0" encoding="utf-8"?>
<!-- Generator: Adobe Illustrator 23.0.1, SVG Export Plug-In . SVG Version: 6.00 Build 0)  -->
<svg version="1.1" id="Слой_1" xmlns="http://www.w3.org/2000/svg" xmlns:xlink="http://www.w3.org/1999/xlink" x="0px" y="0px"
	 viewBox="0 0 595.3 595.3" style="enable-background:new 0 0 595.3 595.3;" xml:space="preserve">
<style type="text/css">
	.st0{fill:#FFFFFF;}
	.st1{fill:#243675;}
	.st2{fill:#E62932;}
</style>
<g>
	<path class="st0" d="M82,192.8c-87.6,54-37.9,214-37.9,217.9c111.1-74.5,379.1,30.5,468.9-17.9c88.5-47.9,39.2-204.4,39.2-204.4
		C415,257.8,166.6,140.5,82,192.8z"/>
	<path class="st1" d="M557.1,183.2C557.1,183.2,556.6,183.2,557.1,183.2l-38.4-12.6c-0.4,0-0.9,0-1.3,0l-1.3-0.4
		c-31.4,28.3-88.5,30.9-153,26.1c-28.3-2.2-58-5.7-87.6-9.6c-20.9-2.2-42.3-4.8-63.2-6.5c-0.9,0-2.2,0-3.5-0.4c-2.2,0-4.8-0.4-7-0.4
		c-23.5-2.2-45.8-3.5-66.2-3.5C78.1,177.1,35,205,24.5,284.8c0,0.4,0,0.9,0,0.9c0,0.4,0,0.9,0,0.9c-7.8,63.6,11.3,130.7,13.5,132
		c0.4,0,0.4,0.4,0.9,0.4l31.8,6.1h0.4c0.4,0,0.9,0,1.3-0.4C116,385,218,395.5,316.1,405.5c50.6,5.7,102.4,10.9,145.1,9.2
		c7-0.4,13.5-0.9,20-1.7c54.5-8.3,83.2-42.7,89.8-106.3C578.4,240.8,558.4,184.1,557.1,183.2 M80.7,195.4
		c84.5-51.9,333.4,64.1,469.4-4.4c0,0,49.2,153.8-39.2,200.9c-89.3,47.9-357.8-55.8-468.9,17.9C42.8,406.4-6.4,248.6,80.7,195.4
		 M388.8,408.1c1.7,0,4.4,0.4,6.1,0.4C393.2,408.5,390.6,408.1,388.8,408.1"/>
	<path class="st2" d="M155.7,300c7-4.8,10.9-11.8,10.9-20.9c0-18.3-11.8-27.9-34.9-27.9H82v107.2h51.4c17.4,0,37.9-8.3,37.9-31.8
		C171.4,313.5,166.1,304.8,155.7,300 M130.4,336.2h-21.8V273h18.7c11.8,0,13.1,4.8,13.1,9.6c0,6.5-3.9,10-11.3,10h-6.5l-9.2,19.6
		h17.4c9.6,0,13.5,3.9,13.5,12.2C145.2,329.7,143,336.2,130.4,336.2"/>
	<rect x="177.9" y="251.2" class="st2" width="27" height="107.2"/>
	<polygon class="st2" points="269.4,311.4 255.9,250.8 213.6,250.8 213.6,357.6 240.2,357.6 240.2,292.2 255.9,357.6 282.9,357.6 
		298.6,291.3 298.6,357.6 325.2,357.6 325.2,250.8 282.9,250.8 	"/>
	<path class="st2" d="M408.9,300.5c7-4.8,10.9-11.8,10.9-20.9c0-18.3-11.8-27.9-34.9-27.9h-49.7v107.2h51.4
		c17.4,0,37.9-8.3,37.9-31.8C424.6,314.4,418.9,305.3,408.9,300.5 M383.6,336.6h-21.8v-62.3h18.7c11.8,0,13.1,4.8,13.1,9.6
		c0,6.5-3.9,10-11.3,10h-6.1l-10,19.6h17.4c9.6,0,13.5,3.9,13.5,12.2C398,330.5,396.2,336.6,383.6,336.6"/>
	<path class="st2" d="M481.7,249.9c-29.6,0-53.6,24-53.6,53.6s24,53.6,53.6,53.6s53.6-24,53.6-53.6
		C535.7,274.3,511.7,249.9,481.7,249.9 M481.7,331.8c-15.3,0-28.3-12.6-28.3-28.3s12.6-28.3,28.3-28.3s27.9,12.6,27.9,28.3
		C510,319.6,496.9,331.8,481.7,331.8"/>
	<g>
		<path class="st1" d="M117.3,237.3c-2.2,1.3-4.8,2.2-7.4,2.6s-5.2,0.9-7.8,0.9s-5.2-0.4-7.8-1.3c-2.2-0.9-4.4-2.2-6.1-3.5
			c-1.7-1.7-3.1-3.5-3.9-5.7c-0.9-2.2-1.3-4.8-1.3-7.4c0-2.6,0.4-5.2,1.3-7.4c0.9-2.2,2.2-3.9,3.9-5.7c1.7-1.7,3.9-2.6,6.1-3.5
			c3.1-0.9,5.7-1.3,8.3-1.3c3.1,0,5.7,0.4,7.8,0.9c2.2,0.9,4.4,1.7,6.1,3.5l-5.2,5.7c-0.9-0.9-2.2-1.7-3.5-2.2
			c-1.3-0.4-3.1-0.9-5.2-0.9c-1.7,0-3.1,0.4-4.4,0.9c-1.3,0.4-2.6,1.3-3.5,2.2c-0.9,0.9-1.7,2.2-2.2,3.5c-0.4,1.3-0.9,2.6-0.9,4.4
			s0.4,3.1,0.9,4.4c0.4,1.3,1.3,2.6,2.2,3.5c0.9,0.9,2.2,1.7,3.5,2.2c1.3,0.4,3.1,0.9,4.4,0.9c1.7,0,3.1,0,4.4-0.4
			c1.3-0.4,2.2-0.9,3.1-1.3v-5.7h-6.5v-7h13.9C117.3,219.4,117.3,237.3,117.3,237.3z"/>
		<path class="st1" d="M122.1,205.9h13.9c1.7,0,3.5,0,5.2,0.4c1.7,0.4,3.1,0.9,4.4,1.7c1.3,0.9,2.2,1.7,3.1,3.1s0.9,3.1,0.9,4.8
			c0,2.2-0.4,4.4-1.7,6.1c-1.3,1.7-3.1,2.6-5.7,3.1l9.2,14.4h-9.6l-7.4-13.5h-3.9v13.5h-7.8v-33.6H122.1z M130,219.8h4.8
			c0.9,0,1.3,0,2.2,0s1.3,0,2.2-0.4c0.4-0.4,1.3-0.4,1.7-1.3c0.4-0.4,0.4-1.3,0.4-2.2c0-0.9,0-1.7-0.4-2.2c-0.4-0.4-0.9-0.9-1.3-1.3
			c-0.4-0.4-1.3-0.4-1.7-0.4c-0.9,0-1.3,0-2.2,0h-5.2v7.8C130.4,219.8,130,219.8,130,219.8z"/>
		<path class="st1" d="M182.7,226.8c0,2.2-0.4,3.9-0.9,5.7c-0.4,1.7-1.7,3.1-2.6,4.4c-1.3,1.3-2.6,2.2-4.8,3.1
			c-2.2,0.4-4.4,0.9-6.5,0.9c-2.6,0-4.8-0.4-6.5-0.9c-1.7-0.9-3.5-1.7-4.8-3.1c-1.3-1.3-2.2-2.6-2.6-4.4c-0.4-1.7-0.9-3.5-0.9-5.7
			v-20.9h7.8v20.5c0,0.9,0,2.2,0.4,3.1c0.4,0.9,0.9,1.7,1.3,2.2c0.4,0.4,1.3,1.3,2.2,1.3c0.9,0.4,1.7,0.4,3.1,0.4
			c0.9,0,2.2,0,3.1-0.4c0.9-0.4,1.7-0.9,2.2-1.3c0.4-0.9,1.3-1.3,1.3-2.2c0.4-0.9,0.4-1.7,0.4-3.1v-20.5h7.8V226.8z"/>
		<path class="st1" d="M187.9,205.9H201c1.7,0,3.5,0,5.2,0.4c1.7,0.4,3.1,0.9,4.4,1.7c1.3,0.9,2.2,1.7,3.1,3.1
			c0.9,1.3,0.9,3.1,0.9,4.8c0,2.2-0.4,3.5-0.9,4.8c-0.9,1.3-1.7,2.6-2.6,3.1c-1.3,0.9-2.6,1.3-4.4,1.7c-1.7,0.4-3.5,0.4-5.2,0.4
			h-5.7V239h-7.8C187.9,239,187.9,205.9,187.9,205.9z M195.8,220.3h5.2c0.9,0,1.3,0,2.2,0c0.4,0,1.3-0.4,1.7-0.4
			c0.4-0.4,0.9-0.9,1.3-1.3c0.4-0.4,0.4-1.3,0.4-2.2c0-0.9,0-1.7-0.4-2.2c-0.4-0.4-0.9-0.9-1.7-1.3s-1.3-0.4-2.2-0.4
			c-0.9,0-1.7,0-2.2,0h-3.9L195.8,220.3L195.8,220.3z"/>
		<path class="st1" d="M217.6,222.9c0-2.6,0.4-5.2,1.3-7.4c0.9-2.2,2.2-3.9,3.9-5.7c1.7-1.7,3.9-2.6,6.1-3.5
			c2.2-0.9,4.8-1.3,7.8-1.3c2.6,0,5.2,0.4,7.8,1.3c2.2,0.9,4.4,2.2,6.1,3.5c1.7,1.7,3.1,3.5,3.9,5.7c0.9,2.2,1.3,4.8,1.3,7.4
			s-0.4,5.2-1.3,7.4c-0.9,2.2-2.2,3.9-3.9,5.7c-1.7,1.7-3.9,2.6-6.1,3.5c-2.2,0.9-4.8,1.3-7.8,1.3c-2.6,0-5.2-0.4-7.8-1.3
			c-2.2-0.9-4.4-2.2-6.1-3.5c-1.7-1.7-3.1-3.5-3.9-5.7C218,228.1,217.6,225.5,217.6,222.9 M225.8,222.9c0,1.7,0.4,3.1,0.9,4.4
			c0.4,1.3,1.3,2.6,2.2,3.5c0.9,0.9,2.2,1.7,3.5,2.2c1.3,0.4,3.1,0.9,4.4,0.9c1.7,0,3.1-0.4,4.4-0.9c1.3-0.4,2.6-1.3,3.5-2.2
			c0.9-0.9,1.7-2.2,2.2-3.5c0.4-1.3,0.9-2.6,0.9-4.4s-0.4-3.1-0.9-4.4c-0.4-1.3-1.3-2.6-2.2-3.5c-0.9-0.9-2.2-1.7-3.5-2.2
			c-1.3-0.4-3.1-0.9-4.4-0.9c-1.7,0-3.1,0.4-4.4,0.9c-1.3,0.4-2.6,1.3-3.5,2.2c-0.9,0.9-1.7,2.2-2.2,3.5
			C225.8,219.8,225.8,221.2,225.8,222.9"/>
	</g>
	<path class="st1" d="M547.9,410.7c0-1.7,0.4-3.1,0.9-4.4s1.3-2.6,2.6-3.5c0.9-0.9,2.2-1.7,3.5-2.6c1.3-0.4,3.1-0.9,4.4-0.9
		c1.7,0,3.1,0.4,4.4,0.9c1.3,0.4,2.6,1.3,3.5,2.2c0.9,0.9,1.7,2.2,2.6,3.5c0.4,1.3,0.9,3.1,0.9,4.4c0,1.7-0.4,3.1-0.9,4.4
		c-0.4,1.3-1.3,2.6-2.6,3.5c-0.9,0.9-2.2,1.7-3.5,2.6c-1.3,0.4-3.1,0.9-4.4,0.9c-1.7,0-3.1-0.4-4.4-0.9c-1.3-0.4-2.6-1.3-3.5-2.2
		c-0.9-0.9-1.7-2.2-2.6-3.5C548.3,413.8,547.9,412.5,547.9,410.7 M550.1,410.7c0,1.3,0.4,2.6,0.9,3.9c0.4,1.3,1.3,2.2,2.2,3.1
		c0.9,0.9,1.7,1.7,3.1,2.2c1.3,0.4,2.6,0.9,3.9,0.9c1.3,0,2.6-0.4,3.9-0.9c1.3-0.4,2.2-1.3,3.1-2.2c0.9-0.9,1.7-1.7,2.2-3.1
		c0.4-1.3,0.9-2.6,0.9-3.9c0-1.3-0.4-2.6-0.9-3.9s-1.3-2.2-2.2-3.1c-0.9-0.9-1.7-1.7-3.1-2.2c-1.3-0.4-2.6-0.9-3.9-0.9
		c-1.3,0-2.6,0.4-3.9,0.9c-1.3,0.4-2.2,1.3-3.1,2.2c-0.9,0.9-1.7,1.7-2.2,3.1C550.1,408.1,550.1,409.4,550.1,410.7 M555.3,404.2h4.8
		c1.7,0,2.6,0.4,3.5,0.9c0.9,0.4,1.3,1.7,1.3,3.1c0,1.3-0.4,2.2-0.9,2.6c-0.9,0.4-1.3,0.9-2.6,0.9l3.9,5.7h-2.2l-3.5-5.7h-2.2v5.7
		h-1.7v-13.1H555.3z M557.1,410.3h2.2c0.4,0,0.9,0,1.3,0s0.9,0,1.3-0.4c0.4,0,0.4-0.4,0.9-0.4c0-0.4,0.4-0.9,0.4-1.3s0-0.9-0.4-1.3
		c0-0.4-0.4-0.4-0.9-0.4s-0.4-0.4-0.9-0.4s-0.9,0-0.9,0h-3.1L557.1,410.3L557.1,410.3z"/>
</g>
</svg>
