<?xml version="1.0" encoding="utf-8"?>
<!-- Generator: Adobe Illustrator 23.0.1, SVG Export Plug-In . SVG Version: 6.00 Build 0)  -->
<svg version="1.1" id="Слой_1" xmlns="http://www.w3.org/2000/svg" xmlns:xlink="http://www.w3.org/1999/xlink" x="0px" y="0px"
	 viewBox="0 0 595.3 595.3" style="enable-background:new 0 0 595.3 595.3;" xml:space="preserve">
<style type="text/css">
	.st0{opacity:0.22;fill:#020203;enable-background:new    ;}
	.st1{fill:#FFFFFF;}
	.st2{fill:url(#SVGID_1_);}
	.st3{fill:url(#SVGID_2_);}
	.st4{fill:url(#SVGID_3_);}
	.st5{fill:#0B57A4;}
	.st6{fill:url(#SVGID_4_);}
</style>
<path class="st0" d="M60.2,369.8c49.6,38.5,137.3,64.3,237.1,64.8h0.7c99.6,0.5,187-24.4,236.5-62.2c27.3-20.8,43-45.6,43-72.2
	c0-19.2-8.1-37.4-22.8-54c-5.8-6.5-12.5-12.8-20.2-18.7c-49.5-38.3-136.9-64.2-236.5-64.8c-0.2,0-0.4,0-0.7,0
	c-99.9-0.6-187.5,24.3-237.1,62.2c-7.7,5.9-14.5,12-20.2,18.4c-14.7,16.5-22.8,34.6-22.8,53.8C17.1,323.7,32.9,348.7,60.2,369.8
	L60.2,369.8z"/>
<path class="st1" d="M61.9,363.6c48.2,38.6,133.4,64.4,230.5,65h0.7c96.8,0.5,181.7-24.4,229.8-62.3c26.5-20.8,41.8-45.7,41.8-72.3
	c0-19.2-7.9-37.5-22.2-54.1c-5.6-6.5-12.2-12.8-19.6-18.7c-48.1-38.4-133-64.3-229.8-65c-0.2,0-0.4,0-0.7,0
	c-97.1-0.6-182.2,24.3-230.5,62.3c-7.5,5.9-14.1,12.1-19.6,18.5C27.9,253.4,20,271.6,20,290.8C20,317.5,35.4,342.4,61.9,363.6z"/>
<radialGradient id="SVGID_1_" cx="-650.4132" cy="827.6935" r="2.2068" gradientTransform="matrix(89.5178 0 0 -41.3605 58517.1563 34465.168)" gradientUnits="userSpaceOnUse">
	<stop  offset="1.000000e-02" style="stop-color:#127DC2"/>
	<stop  offset="0.99" style="stop-color:#0B57A4"/>
</radialGradient>
<path class="st2" d="M77.5,353.7c45,33.2,124.3,55.4,214.8,55.9h0.6c90.2,0.4,169.3-21,214.1-53.6c24.7-17.9,39-39.3,39-62.2
	c0-16.5-7.4-32.3-20.7-46.6c-5.2-5.6-11.4-11-18.3-16.1c-44.8-33.1-123.9-55.3-214.1-55.9c-0.2,0-0.4,0-0.6,0
	c-90.4-0.5-169.8,21-214.8,53.6c-6.9,5-13.1,10.4-18.3,15.9c-13.3,14.2-20.7,29.9-20.7,46.3C38.6,314,52.9,335.5,77.5,353.7z"/>
<linearGradient id="SVGID_2_" gradientUnits="userSpaceOnUse" x1="-650.0531" y1="824.3838" x2="-650.0531" y2="821.9199" gradientTransform="matrix(86.3126 0 0 -36.7785 56400.0977 30623.0625)">
	<stop  offset="0" style="stop-color:#020203;stop-opacity:0"/>
	<stop  offset="1" style="stop-color:#020203;stop-opacity:0.31"/>
</linearGradient>
<path class="st3" d="M85.3,346.4c43.3,29.5,119.9,49.3,207.1,49.7h0.6c86.9,0.3,163.2-18.7,206.4-47.7c23.8-16,37.6-34.9,37.6-55.4
	c0-14.7-7.1-28.7-20-41.4c-5-5-10.9-9.8-17.6-14.3c-43.2-29.4-119.5-49.2-206.5-49.7c-0.2,0-0.4,0-0.6,0
	c-87.2-0.4-163.7,18.6-207.1,47.7c-6.7,4.5-12.6,9.2-17.6,14.2c-12.8,12.6-20,26.5-20,41.2C47.7,311.1,61.5,330.2,85.3,346.4
	L85.3,346.4z"/>
<path class="st1" d="M456.1,188.7c-28.4-10.5-72.1-23.4-154-22.6c-87.6,0.8-118.3,0.9-192.7,37.3c-74.3,36.4-66.4,50.7-34.6,27.4
	c28.5-20.9,58.8-28.9,88.8-30.2c32-1.4,48.4,21.9,47.1,39.2c-2.2,29-21.4,33.7-21.4,58.2c0,20.7,17.5,28.6,29.6,28.6
	c12.1,0,29.6-7.9,29.6-28.6c0-19.6-21.4-31.5-21.4-58.2c0-17.3,11.8-38.8,47.1-50.5c31.6-10.4,92.3-17.7,177.1,12.6
	C496.2,217.9,498,204.2,456.1,188.7z"/>
<linearGradient id="SVGID_3_" gradientUnits="userSpaceOnUse" x1="-648.6109" y1="827.6669" x2="-648.6109" y2="817.0481" gradientTransform="matrix(75.7047 0 0 -25.7242 49393.2188 21348.918)">
	<stop  offset="0" style="stop-color:#FFFFFF"/>
	<stop  offset="1" style="stop-color:#FFFFFF;stop-opacity:0"/>
</linearGradient>
<path class="st4" d="M403.3,198.5c-2.8-0.6-7.8-1.6-11.6-2.3c-11.6-2.3-23.8-4-36.5-5.4c-37.2-3.3-63.8,2.3-92.4,14.2
	c-37.6,15.6-30.7,53.6-27.8,62.4c2.9,8.8,1.4,8.3-3.2,1.8c-4.6-6.5-34.3,18.5-26.9-6.8c7.4-25.2-0.1-51.8-37.9-51.8
	c-34.5,0-61.9,14-66.3,16.4c-15.8,10.4-24.9,22.1-24.8,34.7c0.2,41,96.4,74.2,214.9,74.1c118.5-0.1,214.5-33.3,214.3-74.3
	C504.8,234.9,464.2,211.6,403.3,198.5L403.3,198.5z"/>
<path class="st5" d="M86.4,325.7c-7.7,0-15.1-2.7-21-7.5c-3.6-2.9-4.1-8.2-1.2-11.8c0,0,0,0,0,0c1.6-1.9,4-3.1,6.5-3.1
	c2,0,3.9,0.7,5.3,1.9c1.7,1.4,3.6,2.4,5.9,3c1.6,0.4,3.3,0.7,4.9,0.7c1.7,0,3.3-0.2,4.8-0.6c2.6-0.8,5.5-2.8,7.9-5.6
	c0.4-0.5,0.9-1.1,1.2-1.7h-9.9c-4.6,0-8.4-3.8-8.4-8.4c0-4.6,3.8-8.4,8.4-8.4h9.9c-0.3-0.6-0.8-1.1-1.2-1.6
	c-2.4-2.8-5.3-4.8-7.9-5.6c-1.5-0.4-3.2-0.7-4.8-0.7c-1.7,0-3.3,0.2-4.9,0.7c-2.2,0.6-4.2,1.6-5.9,3c-3.6,2.9-8.9,2.4-11.8-1.2
	c-1.4-1.7-2.1-3.9-1.9-6.1c0.2-2.2,1.3-4.3,3-5.7c5.9-4.9,13.4-7.5,21-7.5c18.2,0,33.1,14.9,33.1,33.1
	C119.5,310.9,104.6,325.7,86.4,325.7z"/>
<path class="st1" d="M86.4,261c-7.3,0-14.4,2.6-20.1,7.2c-2.9,2.4-3.4,6.8-0.9,9.7c0,0,0,0,0,0c2.4,3,6.8,3.4,9.7,1
	c1.9-1.5,4.1-2.7,6.4-3.3c3.4-1,7.1-1,10.5,0c3.3,1,6.4,3.5,8.6,6c0.8,0.9,1.5,1.9,1.9,2.9c0.3,0.6,0.5,1.2,0.6,1.2c0,0-0.9,0-1,0
	H90.8c-3.8,0-6.9,3.1-6.9,6.9c0,0,0,0,0,0c0,3.8,3.1,6.9,6.9,6.9c0,0,0,0,0,0h11.3c0.1,0,0.6,0,0.9,0h0.1c-0.1,0-0.4,0.6-0.6,1.2
	c-0.5,1.1-1.2,2.1-1.9,2.9c-2.2,2.6-5.3,5.1-8.6,6.1c-3.4,1-7.1,0.9-10.5,0c-2.3-0.7-4.5-1.8-6.4-3.3c-2.9-2.4-7.3-2-9.7,0.9
	c-2.4,2.9-2,7.3,0.9,9.7c0,0,0,0,0,0c5.7,4.7,12.8,7.2,20.1,7.2c17.5,0,31.6-14.2,31.6-31.6C118,275.2,103.8,260.9,86.4,261
	L86.4,261z"/>
<path class="st5" d="M172.4,326.4c-2.6,0-5-1.2-6.6-3.2L148.5,301l-5.3,5.6V318c0,4.6-3.8,8.4-8.4,8.4s-8.4-3.8-8.4-8.4v-51.3
	c0-4.6,3.8-8.4,8.4-8.4c4.6,0,8.4,3.8,8.4,8.4v15.5l20.2-21.3c1.6-1.7,3.8-2.6,6.1-2.6c2.2,0,4.2,0.8,5.8,2.3
	c3.3,3.2,3.5,8.5,0.3,11.9l-15.3,16.2l18.8,24.2c2.9,3.7,2.2,9-1.4,11.8C176.1,325.8,174.3,326.4,172.4,326.4L172.4,326.4z"/>
<path class="st1" d="M177.9,313.8l-19.6-25.2l16.2-17.1c2.6-2.8,2.5-7.1-0.3-9.8c-2.8-2.6-7.2-2.5-9.8,0.2c0,0,0,0,0,0l-22.7,24
	v-19.2c0-3.8-3.1-6.9-6.9-6.9c-3.8,0-6.9,3.1-6.9,6.9c0,0,0,0,0,0V318c0,3.8,3.1,6.9,6.9,6.9c0,0,0,0,0,0c3.8,0,6.9-3.1,6.9-6.9
	c0,0,0,0,0,0v-12l6.9-7.3l18.3,23.5c1.3,1.7,3.3,2.7,5.5,2.7c1.5,0,3-0.5,4.3-1.4C179.7,321.1,180.2,316.8,177.9,313.8z"/>
<path class="st5" d="M446.3,326.4c-4.6,0-8.4-3.8-8.4-8.4v-36.2c0-6.4-7-6.7-8.4-6.7s-8.4,0.3-8.4,6.7v24.3
	c0,12.6-9.1,18.5-13.8,19.9c-0.8,0.2-1.6,0.4-2.4,0.4c-3.7,0-7-2.5-8-6c-1.3-4.3,1.2-9,5.5-10.4c0.7-0.3,2-1.2,2-3.9v-24.3
	c0-15.4,12.7-23.4,25.2-23.4c12.5,0,25.2,8.1,25.2,23.4V318C454.7,322.6,451,326.4,446.3,326.4z"/>
<path class="st1" d="M429.6,259.8c-11.8,0-23.7,7.5-23.7,22v24.3c0,3.8-2.1,5-3.1,5.3c-3.6,1.2-5.6,5-4.5,8.5c0.9,2.9,3.6,4.9,6.6,5
	c0.7,0,1.3-0.1,2-0.3c4.4-1.3,12.8-6.9,12.8-18.5v-24.3c0-7.9,8.9-8.2,9.9-8.2c1,0,9.9,0.2,9.9,8.2V318c0,3.8,3.1,6.9,6.9,6.9
	c3.8,0,6.9-3.1,6.9-6.9c0,0,0,0,0,0v-36.2C453.2,267.3,441.3,259.8,429.6,259.8z"/>
<path class="st5" d="M385.7,326.4c-4.6,0-8.4-3.8-8.4-8.4v-26.4l-23.9,31.4c-1.6,2.1-4.1,3.3-6.7,3.3c-0.9,0-1.8-0.2-2.7-0.5
	c-3.4-1.1-5.7-4.3-5.7-7.9v-51.3c0-4.6,3.7-8.4,8.4-8.4c4.6,0,8.4,3.8,8.4,8.4v26.4l23.9-31.4c1.6-2.1,4.1-3.3,6.7-3.3
	c0.9,0,1.8,0.2,2.7,0.4c3.4,1.2,5.7,4.3,5.7,8V318C394.1,322.6,390.3,326.4,385.7,326.4L385.7,326.4z"/>
<path class="st1" d="M387.9,260.2c-2.8-0.9-5.9,0-7.7,2.4l-26.5,35v-30.8c0-3.8-3.1-6.9-6.9-6.9c-3.8,0-6.9,3.1-6.9,6.9V318
	c0,3,1.9,5.6,4.7,6.5c0.7,0.3,1.5,0.4,2.2,0.4c2.1,0,4.2-1,5.5-2.7l26.5-35V318c0,3.8,3.1,6.9,6.9,6.9c3.8,0,6.9-3.1,6.9-6.9v-51.3
	C392.6,263.7,390.7,261.1,387.9,260.2L387.9,260.2z"/>
<path class="st5" d="M323.6,326.4c-4.6,0-8.4-3.8-8.4-8.4v-24.3l-11,16c-1.6,2.3-4.2,3.6-6.9,3.6h-1.2c-2.8,0-5.3-1.3-6.9-3.6
	l-11-16V318c0,4.6-3.7,8.4-8.4,8.4c-4.6,0-8.4-3.8-8.4-8.4v-51.3c0-4.6,3.7-8.4,8.3-8.4c0,0,0,0,0,0c2.8,0,5.3,1.3,6.9,3.6l20,29
	l20-29c1.6-2.3,4.1-3.6,6.9-3.6c0.8,0,1.7,0.1,2.5,0.4c3.5,1.1,5.9,4.3,5.9,8V318C332,322.7,328.3,326.4,323.6,326.4z"/>
<path class="st1" d="M325.7,260.1c-2.9-0.9-6,0.2-7.7,2.7l-21.2,30.8l-21.2-30.8c-1.7-2.5-4.8-3.6-7.7-2.7c-2.9,0.9-4.9,3.6-4.9,6.6
	V318c0,3.8,3.1,6.9,6.9,6.9c3.8,0,6.9-3.1,6.9-6.9v-29.1l13.7,19.9c1.4,2.1,3.9,3.2,6.3,3c2.4,0.2,4.8-0.8,6.3-3l13.7-19.9V318
	c0,3.8,3.1,6.9,6.9,6.9c3.8,0,6.9-3.1,6.9-6.9v-51.3C330.6,263.7,328.6,261,325.7,260.1z"/>
<path class="st5" d="M507.2,326.2c-2.6,0-5-1.2-6.6-3.2l-17.2-22.1l-5.3,5.6v11.3c0,4.6-3.7,8.4-8.4,8.4c-4.6,0-8.4-3.7-8.4-8.4
	v-51.2c0-4.6,3.7-8.4,8.4-8.4c4.6,0,8.4,3.8,8.4,8.4v15.4l20.1-21.2c1.6-1.7,3.8-2.6,6.1-2.6c2.1,0,4.2,0.8,5.8,2.3
	c3.4,3.2,3.5,8.5,0.3,11.8L495,288.6l18.8,24.1c2.8,3.7,2.2,8.9-1.5,11.8C510.9,325.6,509.1,326.2,507.2,326.2z"/>
<path class="st1" d="M512.7,313.6l-19.6-25.1l16.1-17.1c2.6-2.8,2.5-7.1-0.3-9.7c0,0,0,0,0,0c-2.7-2.6-7.1-2.5-9.7,0.2c0,0,0,0,0,0
	l-22.7,23.9v-19.2c0-3.8-3.1-6.9-6.9-6.9c-3.8,0-6.9,3.1-6.9,6.9l0,0v51.2c0.1,3.8,3.2,6.8,7,6.8c3.7-0.1,6.7-3.1,6.8-6.8v-11.9
	l6.9-7.3l18.3,23.5c1.3,1.7,3.3,2.6,5.5,2.6c1.5,0,3-0.5,4.3-1.4C514.5,321,515,316.6,512.7,313.6L512.7,313.6z"/>
<radialGradient id="SVGID_4_" cx="-569.6597" cy="794.0911" r="4.1831" gradientTransform="matrix(9.1299 0 0 -11.1377 5408.0366 9123.1514)" gradientUnits="userSpaceOnUse">
	<stop  offset="1.000000e-02" style="stop-color:#FFFFFF"/>
	<stop  offset="0.4" style="stop-color:#FFFFFF"/>
	<stop  offset="0.99" style="stop-color:#878787"/>
</radialGradient>
<path class="st6" d="M195.4,310.2c0,0,8.4,15,28.3,12.4c20.1-2.6,24.3-22.4,20.1-34.6c-4.2-12.2-9.2-14.8-13.9-26.4
	c-1.4-3.6-3-1.4-1.8,1.5c1.2,2.9,9,20.4,2.1,36.2c-5.5,12.5-18.4,11.1-23.2,9.9C193.7,305.9,191,300.8,195.4,310.2z"/>
</svg>
