<?xml version="1.0" encoding="utf-8"?>
<!-- Generator: Adobe Illustrator 23.0.1, SVG Export Plug-In . SVG Version: 6.00 Build 0)  -->
<svg version="1.1" id="Слой_1" xmlns="http://www.w3.org/2000/svg" xmlns:xlink="http://www.w3.org/1999/xlink" x="0px" y="0px"
	 viewBox="0 0 595.3 595.3" style="enable-background:new 0 0 595.3 595.3;" xml:space="preserve">
<style type="text/css">
	.st0{fill:#FBC61C;}
</style>
<path class="st0" d="M278.5,247.3c-1.8-1.5-3.8-2.6-6.1-3.3c-2.1-0.6-4.2-0.9-6.3-0.9c-1.3,0-2.7,0.2-4,0.6c-1.3,0.4-2.5,1-3.6,1.9
	c-1.1,0.9-2,2.1-2.6,3.4c-0.7,1.4-1,3.1-1,5.1v17.6c0,2,0.3,3.7,1,5c0.7,1.4,1.5,2.5,2.6,3.4c1.1,0.9,2.3,1.5,3.6,1.9
	c1.3,0.4,2.6,0.6,4,0.6c2,0,4.1-0.3,6.2-0.9c2.1-0.6,4.2-1.7,6.3-3.3l5.7,9.3c-2.2,1.9-4.9,3.3-8.2,4.4c-3.3,1.1-6.7,1.6-10.2,1.6
	c-2.9,0-5.7-0.4-8.4-1.2c-2.6-0.8-5.1-2-7.4-3.6c-2.2-1.6-4-3.7-5.3-6.1c-1.3-2.4-2-5.3-2-8.6v-22.6c0-3.2,0.7-6,2-8.5
	c1.3-2.4,3-4.5,5.2-6.1c2.2-1.7,4.7-2.9,7.3-3.7c2.7-0.8,5.6-1.2,8.4-1.2c3.4,0,6.8,0.5,10.1,1.4c3.2,0.9,6,2.4,8.4,4.5
	C284.3,238,278.5,247.3,278.5,247.3z M327.6,280.6h-21l-4,12.5h-12.8l21.2-60.4h12.3l21,60.4h-13.1
	C331.3,293.1,327.6,280.6,327.6,280.6z M309.8,270.5h14.5l-2.4-7.7l-4.7-16h-0.3l-4.6,15.7L309.8,270.5z M386.7,293.1v-49.6h-22.3
	v49.6h-12v-60.4h46.4v60.4C398.8,293.1,386.7,293.1,386.7,293.1z M446.8,247.3c-1.8-1.5-3.8-2.6-6-3.3c-2-0.6-4.2-0.9-6.3-0.9
	c-1.4,0-2.7,0.2-4,0.6c-1.3,0.4-2.5,1-3.6,1.9c-1.1,0.9-2,2.1-2.6,3.4c-0.7,1.4-1,3.1-1,5.1v17.6c0,2,0.3,3.7,1,5
	c0.7,1.4,1.6,2.5,2.6,3.4c1.1,0.9,2.3,1.5,3.6,1.9c1.3,0.4,2.6,0.6,4,0.6c2,0,4.1-0.3,6.2-0.9c2.1-0.6,4.2-1.7,6.3-3.3l5.7,9.3
	c-2.2,1.9-4.9,3.3-8.2,4.4c-3.3,1.1-6.7,1.6-10.2,1.6c-2.8,0-5.7-0.4-8.4-1.2c-2.6-0.8-5.1-2-7.3-3.6c-2.2-1.6-4-3.7-5.3-6.1
	c-1.3-2.4-2-5.3-2-8.6v-22.6c0-3.2,0.6-6,2-8.5c1.3-2.4,3-4.5,5.2-6.1c2.2-1.7,4.7-2.9,7.3-3.7c2.7-0.8,5.6-1.2,8.4-1.2
	c3.5,0,6.9,0.5,10.1,1.4c3.1,0.8,5.9,2.4,8.4,4.5C452.6,238,446.8,247.3,446.8,247.3z M495.9,280.6h-21l-3.9,12.5h-12.8l21.2-60.4
	h12.3l21,60.4h-13.1C499.5,293.1,495.9,280.6,495.9,280.6z M478.1,270.5h14.6l-2.4-7.7l-4.7-16h-0.3l-4.6,15.7L478.1,270.5z
	 M554.9,293.1v-25.2h-22.3v25.2h-12v-60.4h12V257h22.3v-24.4h12.2v60.4C567.1,293.1,554.9,293.1,554.9,293.1z M289.8,334.6v-16.5
	h11.3v2.9h-8v13.5H289.8z M311.6,318.1c1.4,0,2.7,0.6,3.6,1.7c0.4,0.5,0.7,1,0.9,1.7c0.2,0.6,0.3,1.2,0.3,1.8c0,1.3-0.5,2.5-1.3,3.5
	c-0.4,0.5-0.9,0.9-1.5,1.2c-0.6,0.3-1.3,0.5-2,0.5h-4v6.2h-3.3v-16.5L311.6,318.1L311.6,318.1z M307.6,325.5h3.3
	c0.7,0,1.3-0.2,1.7-0.6c0.4-0.4,0.6-1,0.6-1.6c0-0.6-0.2-1.2-0.6-1.6c-0.4-0.4-0.9-0.6-1.7-0.6h-3.3
	C307.6,321.1,307.6,325.5,307.6,325.5z M327,330.6c-0.6,1.5-1.2,2.6-2,3.2c-0.7,0.6-1.7,0.9-2.8,0.9h-1.7v-2.6h1.5
	c0.4,0,0.7-0.1,1-0.2c0.3-0.2,0.5-0.4,0.6-0.7l0.1-0.2l0.1-0.2l-5.2-12.7h3.4l2,5.4c0.3,0.7,0.5,1.4,0.7,2.1
	c0.2,0.6,0.4,1.2,0.5,1.6h0.1l1.3-3.8c0-0.1,0.1-0.3,0.2-0.6c0.1-0.3,0.2-0.6,0.3-1c0.1-0.4,0.3-0.8,0.4-1.1
	c0.1-0.4,0.3-0.8,0.4-1.1l0.3-0.9c0.1-0.2,0.1-0.4,0.2-0.5h3.2L327,330.6L327,330.6z M344.6,334.6v-13.5h-6.1v13.5h-3.3v-16.5h12.7
	v16.5H344.6z M361.9,334.6v-13.5h-6.1v13.5h-3.3v-16.5h12.7v16.5H361.9z M379,331.2h-5.7l-1.1,3.4h-3.5l5.8-16.5h3.3l5.7,16.5H380
	C380,334.6,379,331.2,379,331.2z M374.1,328.5h4l-0.6-2.1l-1.3-4.4h-0.1l-1.3,4.3C374.8,326.3,374.1,328.5,374.1,328.5z
	 M395.1,334.6v-16.5h3.3v6.6h1.7c0.3,0,0.6,0,0.9-0.1c0.3-0.1,0.5-0.2,0.8-0.3c0.2-0.2,0.5-0.4,0.6-0.6c0.2-0.3,0.3-0.6,0.5-1.1
	l1.4-4.5h3.3l-1.5,4.8c-0.2,0.7-0.5,1.4-1,2c-0.3,0.5-0.8,0.9-1.4,1.1c0.7,0.2,1.2,0.6,1.6,1.2c0.4,0.6,0.7,1.3,0.9,2.1l1.6,5.3
	h-3.6l-1.4-4.8c-0.1-0.4-0.3-0.8-0.5-1.1c-0.2-0.3-0.4-0.5-0.6-0.7c-0.2-0.2-0.5-0.3-0.8-0.3c-0.3-0.1-0.6-0.1-0.9-0.1h-1.8v7
	L395.1,334.6L395.1,334.6z M424.3,329.3c0,1.6-0.6,3-1.9,4c-0.6,0.5-1.2,0.8-2,1c-0.8,0.2-1.6,0.4-2.4,0.4c-0.9,0-1.7-0.1-2.4-0.4
	c-0.7-0.2-1.4-0.6-2-1c-0.6-0.5-1-1-1.4-1.7c-0.3-0.7-0.5-1.5-0.5-2.3v-6c0-0.9,0.2-1.7,0.5-2.3c0.3-0.7,0.8-1.2,1.4-1.7
	c0.6-0.4,1.3-0.8,2-1c0.8-0.2,1.6-0.3,2.4-0.3c0.8,0,1.6,0.1,2.4,0.4c0.8,0.2,1.4,0.6,2,1c1.2,1,2,2.5,1.9,4
	C424.3,323.4,424.3,329.3,424.3,329.3z M421,324c0-0.5-0.1-0.9-0.3-1.4c-0.3-0.7-0.9-1.2-1.7-1.4c-0.7-0.2-1.5-0.2-2.2,0
	c-0.7,0.2-1.4,0.7-1.7,1.4c-0.2,0.4-0.3,0.9-0.3,1.4v4.8c0,0.5,0.1,1,0.3,1.4c0.3,0.7,0.9,1.2,1.7,1.4c0.7,0.2,1.5,0.2,2.2,0
	c0.7-0.2,1.4-0.7,1.7-1.4c0.2-0.4,0.3-0.9,0.3-1.4V324z M441.5,325.8l-1.5,3l-1.8,3.5h-2.4l-1.8-3.5l-1.6-3.1h-0.1v8.8h-3.3v-16.5h3
	l2.9,5.8l2,4.1h0.1l2-4.2l2.8-5.7h3v16.5h-3.3L441.5,325.8C441.6,325.8,441.5,325.8,441.5,325.8z M458.9,334.6v-13.5h-6.1v13.5h-3.3
	v-16.5h12.7v16.5C462.2,334.6,458.9,334.6,458.9,334.6z M475.9,331.2h-5.7l-1.1,3.4h-3.5l5.8-16.5h3.4l5.7,16.5h-3.6L475.9,331.2z
	 M471.1,328.5h4l-0.7-2.1l-1.3-4.4H473l-1.3,4.3C471.8,326.3,471.1,328.5,471.1,328.5z M493.3,334.6v-6.9h-6.1v6.9H484v-16.5h3.3
	v6.6h6.1v-6.6h3.3v16.5H493.3z M511.3,323.9l-1.6,2.5c-0.2,0.3-0.4,0.7-0.7,1.1l-0.9,1.4c-0.7,1.1-1.4,2.1-2,3.1
	c-0.3,0.5-0.6,1-0.9,1.4c-0.3,0.4-0.5,0.8-0.7,1.1h-3v-16.5h3.3V329h0.1l3.4-5.4l3.5-5.4h3v16.5h-3.3v-10.7
	C511.4,323.9,511.3,323.9,511.3,323.9z M529.3,323.9l-1.6,2.5c-0.2,0.3-0.4,0.7-0.7,1.1c-0.3,0.4-0.6,0.9-0.9,1.4l-1,1.6
	c-0.4,0.5-0.7,1.1-1,1.6c-0.3,0.5-0.6,1-0.9,1.4l-0.7,1.1h-3v-16.5h3.3V329h0.1l3.4-5.4l3.5-5.4h3v16.5h-3.3v-10.7H529.3
	L529.3,323.9z M526.3,317.5c-0.6,0-1.2-0.1-1.7-0.4c-0.4-0.2-0.8-0.5-1.1-0.9c-0.3-0.3-0.5-0.7-0.6-1.2c-0.1-0.4-0.2-0.8-0.2-1.2
	h2.2c0,0.1,0,0.3,0.1,0.5c0.1,0.4,0.4,0.7,0.7,0.9c0.2,0.1,0.4,0.2,0.6,0.2c0.2,0,0.5,0,0.7-0.2c0.5-0.3,0.8-0.8,0.8-1.4h2.2
	c-0.1,0.4-0.1,0.8-0.3,1.2c-0.1,0.4-0.3,0.8-0.6,1.2C528.4,317.1,527.3,317.6,526.3,317.5z M383.8,371.3v-13.7l-2.2,1.8l-1.1-1.5
	l3.4-2.8h1.9v16.2L383.8,371.3L383.8,371.3z M402.4,367.2c0,0.6-0.1,1.2-0.4,1.8c-0.3,0.5-0.6,1-1.1,1.3c-0.5,0.4-1,0.7-1.6,0.8
	c-0.6,0.2-1.2,0.3-1.9,0.3c-1,0-1.9-0.2-2.6-0.5c-0.7-0.3-1.3-0.7-1.8-1.2l1.2-1.6c0.5,0.4,1,0.8,1.5,1c0.8,0.4,1.8,0.5,2.6,0.2
	c0.7-0.2,1.3-0.7,1.7-1.3c0.2-0.4,0.3-0.8,0.3-1.3V364c-0.8,0.5-1.5,0.8-2.1,1c-0.5,0.2-1.1,0.3-1.6,0.3c-1.2,0-2.2-0.4-2.9-1.1
	c-0.7-0.7-1-1.8-1-3.1v-1.8c0-1.2,0.5-2.4,1.5-3.2c0.4-0.4,1-0.7,1.6-0.9c0.6-0.2,1.2-0.3,1.8-0.3c0.6,0,1.2,0.1,1.8,0.3
	c0.6,0.2,1.1,0.5,1.5,0.8c0.4,0.4,0.8,0.8,1.1,1.3c0.3,0.6,0.4,1.2,0.4,1.8L402.4,367.2L402.4,367.2z M394.7,360.9
	c0,0.8,0.2,1.4,0.6,1.8c0.4,0.4,1,0.6,1.5,0.6c0.6,0,1.1-0.1,1.7-0.4c0.6-0.2,1.1-0.6,1.8-1v-2.3c0-0.4-0.1-0.9-0.2-1.3
	c-0.2-0.3-0.4-0.6-0.7-0.9c-0.3-0.2-0.6-0.4-0.9-0.5c-0.3-0.1-0.6-0.1-1-0.1c-0.3,0-0.7,0.1-1,0.1c-0.3,0.1-0.6,0.3-0.9,0.5
	c-0.3,0.2-0.5,0.5-0.7,0.9c-0.2,0.4-0.3,0.8-0.3,1.3V360.9z M416.1,367.2c0,1.2-0.5,2.4-1.5,3.2c-0.5,0.4-1,0.7-1.6,0.8
	c-0.6,0.2-1.3,0.3-1.9,0.3c-1.6,0-3.2-0.5-4.5-1.7l1.2-1.6c0.5,0.4,1,0.8,1.5,1c0.5,0.2,1.1,0.3,1.7,0.3c0.3,0,0.6-0.1,1-0.1
	c0.3-0.1,0.7-0.3,0.9-0.5c0.3-0.2,0.5-0.5,0.7-0.9c0.2-0.4,0.3-0.8,0.3-1.3V364c-0.8,0.5-1.5,0.8-2.1,1c-0.5,0.2-1.1,0.3-1.7,0.3
	c-1.2,0-2.2-0.4-2.8-1.1c-0.7-0.7-1-1.8-1-3.1v-1.8c0-1.2,0.5-2.4,1.5-3.2c0.4-0.4,1-0.7,1.6-0.9c0.6-0.2,1.2-0.3,1.8-0.3
	c0.6,0,1.2,0.1,1.8,0.3c0.6,0.2,1.1,0.5,1.5,0.8c1,0.8,1.5,1.9,1.5,3.1L416.1,367.2L416.1,367.2z M408.4,360.9
	c0,0.8,0.2,1.4,0.6,1.8c0.4,0.4,1,0.6,1.5,0.6c0.6,0,1.1-0.1,1.7-0.4c0.6-0.2,1.2-0.6,1.8-1v-2.3c0-0.4-0.1-0.9-0.2-1.3
	c-0.2-0.3-0.4-0.6-0.7-0.9c-0.3-0.2-0.6-0.4-0.9-0.5c-0.3-0.1-0.6-0.1-1-0.1c-0.7,0-1.3,0.2-1.9,0.6c-0.3,0.2-0.5,0.5-0.7,0.9
	c-0.2,0.4-0.3,0.8-0.3,1.3V360.9z M424.8,371.3v-13.7l-2.2,1.8l-1.1-1.5l3.4-2.8h1.9v16.2L424.8,371.3L424.8,371.3z M343.7,362.1
	h26.5v1h-26.5V362.1z M439.8,362.1h26.5v1h-26.5V362.1z M158.9,292.9l0.5-0.1l32-4.7l4.5-0.7v-40.3l-4.6-0.6l-55.6-6.8v-14.4
	l-3.2-0.5L71.8,216l-2-0.3l-1.3,1.5l-16.7,18.5l-1,1.1v13l-8.5-0.8l-1.5-0.1l-1,1.1l-10.9,12.1l-0.8,0.9V337l1.7,0.9l10.9,5.5
	l0.7,0.4l0.8,0l8.6-0.4v6l2,1l16.7,8.5l0.9,0.5l1-0.1l9.6-0.7v7.9l2.9,1.5l21.5,10.9l1.4,0.7l1.5-0.2l82.8-8.7l4.7-0.5v-40.6
	l-4.7-0.5l-31.9-3.4l-0.4,0l-0.4,0l-7,0.2v-33.4C151.4,292.6,158.9,292.9,158.9,292.9z M50.8,340.3l-8.7,0.4v-88.6l8.7,0.8
	C50.8,252.9,50.8,340.3,50.8,340.3z M106.7,236.3l-1.5,0.9l-21.5,12.7l-2.6,1.5v103.5l-9.8,0.7l0-135.9l60.7,9.1v10.7l-23.5-2.9
	C108.4,236.6,106.7,236.3,106.7,236.3z M190.6,334.4v31.2l-82.8,8.7V241.7l82.8,10.1V283l-44.4-2.7v56
	C146.2,336.3,190.6,334.4,190.6,334.4z"/>
</svg>
