<?xml version="1.0" encoding="utf-8"?>
<!-- Generator: Adobe Illustrator 23.0.1, SVG Export Plug-In . SVG Version: 6.00 Build 0)  -->
<svg version="1.1" id="Слой_1" xmlns="http://www.w3.org/2000/svg" xmlns:xlink="http://www.w3.org/1999/xlink" x="0px" y="0px"
	 viewBox="0 0 595.3 595.3" style="enable-background:new 0 0 595.3 595.3;" xml:space="preserve">
<style type="text/css">
	.st0{fill-rule:evenodd;clip-rule:evenodd;fill:#D50E39;}
	.st1{filter:url(#Adobe_OpacityMaskFilter);}
	.st2{fill-rule:evenodd;clip-rule:evenodd;fill:#FFFFFF;}
	.st3{mask:url(#b_2_);fill-rule:evenodd;clip-rule:evenodd;fill:#D50E39;}
</style>
<g>
	<path class="st0" d="M121,358.6h2.2V236.7H121V358.6z M153.8,343l1.4-1.6c1,0.8,2,1.3,3.3,1.3c1,0,1.7-0.4,1.7-1.1v0
		c0-0.6-0.4-1-2.3-1.4c-2.2-0.5-3.7-1.2-3.7-3.3v0c0-1.9,1.6-3.2,3.8-3.2c1.5,0,2.9,0.5,4.1,1.4l-1.2,1.7c-1-0.7-1.9-1.1-2.9-1.1
		c-1,0-1.5,0.5-1.5,1v0c0,0.7,0.5,1,2.4,1.5c2.3,0.6,3.5,1.4,3.5,3.2v0c0,2.1-1.7,3.3-4,3.3C156.7,344.7,155.1,344.1,153.8,343
		L153.8,343z"/>
	<defs>
		<filter id="Adobe_OpacityMaskFilter" filterUnits="userSpaceOnUse" x="22.3" y="272.4" width="550.6" height="72.4">
			<feColorMatrix  type="matrix" values="1 0 0 0 0  0 1 0 0 0  0 0 1 0 0  0 0 0 1 0"/>
		</filter>
	</defs>
	<mask maskUnits="userSpaceOnUse" x="22.3" y="272.4" width="550.6" height="72.4" id="b_2_">
		<g class="st1">
			<path id="a_2_" class="st2" d="M22.3,361.5H573V237.6H22.3V361.5z"/>
		</g>
	</mask>
	<path class="st3" d="M165.4,344.6h2.3v-10.8h-2.3V344.6z M171.3,333.8h2.1l5.3,6.8v-6.8h2.3v10.8h-2l-5.5-7v7h-2.3V333.8z
		 M183.9,339.2L183.9,339.2c0-3.1,2.4-5.6,5.7-5.6c2.1,0,3.3,0.7,4.3,1.7l-1.5,1.7c-0.9-0.8-1.7-1.2-2.9-1.2c-1.9,0-3.3,1.6-3.3,3.4
		v0c0,1.9,1.3,3.5,3.3,3.5c1.3,0,2.1-0.5,2.9-1.3l1.5,1.5c-1.1,1.2-2.4,1.9-4.5,1.9C186.3,344.8,183.9,342.3,183.9,339.2
		 M196.8,333.8h8.3v2h-6v2.3h5.3v2h-5.3v2.4h6v2h-8.3V333.8z M214.6,336.1l-1.9,0.5l-0.5-1.9l3.1-0.9h1.6v10.8h-2.3V336.1z
		 M225.9,337.3L225.9,337.3c0-1-0.8-1.7-2-1.7c-1.2,0-1.9,0.7-1.9,1.7v0c0,1,0.8,1.7,2,1.7C225.2,339,225.9,338.3,225.9,337.3
		 M225.9,340.1L225.9,340.1c-0.6,0.5-1.3,0.8-2.3,0.8c-2.4,0-3.9-1.3-3.9-3.5v0c0-2.2,1.7-3.8,4.2-3.8c1.5,0,2.3,0.4,3.2,1.2
		c0.8,0.8,1.3,2,1.3,4.1v0c0,3.5-1.7,5.9-4.8,5.9c-1.6,0-2.7-0.5-3.6-1.3l1.2-1.7c0.8,0.6,1.5,1,2.4,1
		C225.4,342.7,225.9,341.1,225.9,340.1 M235.8,335.8h-5.3v-2h7.9v1.7l-4.9,9h-2.6L235.8,335.8z M244.6,340.4v-3.5l-3.1,3.5H244.6z
		 M244.6,342.3h-5.4l-0.4-1.6l6.1-6.9h2v6.7h1.5v1.8h-1.5v2.3h-2.2V342.3z M65,284.3c-6.4,0-11.5-2.7-11.4-6c0.1-3.3,5.4-6,11.8-6
		s11.5,2.7,11.4,6C76.7,281.6,71.5,284.3,65,284.3 M72.3,295.7c-3.2-2-7.9-2.1-14.3,5.7c-3.1,3.7-6,9-9.6,13.3
		c-3.6,4.3-7.7,7.6-13.1,7.6c-6.9,0-10.2-5.3-11.7-11.9c-0.8-3.3-1.1-6.9-1.2-10.4c-0.1-3.1-0.1-6.2,0.1-9.3c0.1-1.7,0.4-3.4,0.9-5
		c2.8-7.4,10.9-11.6,18.1-9.3c5.6,1.8,9.1,6.9,8.9,12.6c-0.1,2.9-0.3,5.9-0.4,8.4c-0.1,2.5-0.2,4.5,0,5.3c0.3,1.2,1.5,1.2,2.2,0.5
		c0.3-0.3,1.2-1.3,2.3-2.5c1-1.2,2.3-2.6,3.3-3.7c2-2.2,6.7-6.7,15.1-6.7c9.3,0,16.6,7.1,16.3,16c-0.3,8.8-6,16-17.4,16
		c-9.5,0-14.7-6-12.1-13.6c2.4-6.9,11.9-8.9,15.9-7.6C75.5,301,75.5,297.6,72.3,295.7 M153.5,299.6v-0.1c0-11.7,9.1-21.3,22-21.3
		c8,0,12.7,2.6,16.7,6.4l-5.7,6.4c-3.3-2.9-6.7-4.8-11-4.8c-7.3,0-12.6,6-12.6,13.2v0.1c0,7.3,5.2,13.3,12.6,13.3
		c4.9,0,7.9-1.9,11.3-4.9l5.7,5.6c-4.4,4.5-9.2,7.3-17.3,7.3C162.7,320.9,153.5,311.5,153.5,299.6 M331.8,278.9h8.9v18.6l17.7-18.6
		h11L352,296.5l18.1,23.7h-10.7L346,302.4l-5.2,5.3v12.5h-8.9L331.8,278.9z M376.7,320.2h8.9v-41.3h-8.9V320.2z M471.4,299.6v-0.1
		c0-7.3-5.5-13.3-13.1-13.3c-7.7,0-13,6-13,13.2v0.1c0,7.3,5.5,13.3,13.1,13.3C466.1,312.9,471.4,306.9,471.4,299.6 M435.9,299.6
		v-0.1c0-11.7,9.5-21.3,22.5-21.3c13,0,22.4,9.5,22.4,21.2v0.1c0,11.7-9.5,21.3-22.5,21.3C445.3,320.9,435.9,311.4,435.9,299.6
		 M483.3,278.9h9.9l11.4,29.6l11.4-29.6h9.6l-17.2,41.6h-7.9L483.3,278.9z M563.6,299.6v-0.1c0-7.3-5.5-13.3-13.1-13.3
		c-7.7,0-13,6-13,13.2v0.1c0,7.3,5.5,13.3,13.1,13.3C558.3,312.9,563.6,306.9,563.6,299.6 M528.1,299.6v-0.1
		c0-11.7,9.5-21.3,22.5-21.3c13,0,22.4,9.5,22.4,21.2v0.1c0,11.7-9.5,21.3-22.5,21.3C537.5,320.9,528.1,311.4,528.1,299.6
		 M227.1,278.9v16.6h-17.8v-16.6h-8.9v41.3h8.9v-24.6c0.1,4.4,3.7,7.9,8.1,7.9h9.7v16.6h8.9v-41.3L227.1,278.9L227.1,278.9z
		 M430.6,278.9h-34.3c0,4.2,3.4,7.6,7.6,7.7h15.2l-23.6,27.1v6.6h35.1v-7.7H407l23.6-27.1V278.9z M306.4,299h-9.8v-12.3h9.6
		c4.7,0,7.6,2.1,7.6,6.1v0.1C313.8,296.6,311,299,306.4,299z M313.6,305.2c5.5-1.9,9.2-6.1,9.2-12.8v-0.1c0-3.8-1.2-7-3.5-9.3
		c-2.8-2.7-7-4.2-12.3-4.2h-19.2v41.3h8.9v-13.5h7.7l9.3,13.5h10.5C324.1,320.2,313.6,305.2,313.6,305.2z M255.6,312.4v-16.8
		c0.1,4.2,3.5,7.6,7.7,7.6h12.7v-7.8h-20.5v-8.9h23.2v-7.8h-32.1v41.3h32.1v-7.8C278.8,312.4,255.6,312.4,255.6,312.4z"/>
</g>
</svg>
